# xmcd CD database file generated by libcdaudio 0.99.9
#
# Track frame offsets:
#       150
#       8797
#       60395
#       117270
#       164060
#       212557
#
# Disc length: 3677 seconds
#
# Revision: 0
# Processed by: cddbd v1.5.1PL0 Copyright (c) Steve Scherf et al.
# Submitted via: libcdaudio 0.99.9
#
DISCID=4a0e5b06
DTITLE=The Royal Philharmonic - REFRESHING CLASSIC
DYEAR=1900
DGENRE=
TTITLE0=リヒャルト・シュトラウス：交響詩「ツァラトゥストラはかく語りき」第一楽章
TTITLE1=ショスタコーヴィチ：交響曲第5番 ニ短調 作品47「革命」より第四楽章
TTITLE2=リスト：メフィスト・ワルツ
TTITLE3=ウエーバー：舞踏への勧誘
TTITLE4=ポンキエルリ：歌劇「ショコンダ」より「時の舞踏」
TTITLE5=ラヴェル：ボレロ
EXTD=
EXTT0=
EXTT1=
EXTT2=
EXTT3=
EXTT4=
EXTT5=
PLAYORDER=
